<svg width="14" height="14" viewBox="0 0 14 14" fill="none" xmlns="http://www.w3.org/2000/svg">
<path d="M3.0625 6.5625H11.8125C11.9285 6.5625 12.0398 6.60859 12.1219 6.69064C12.2039 6.77269 12.25 6.88397 12.25 7C12.25 7.11603 12.2039 7.22731 12.1219 7.30936C12.0398 7.39141 11.9285 7.4375 11.8125 7.4375H3.0625C2.94647 7.4375 2.83519 7.39141 2.75314 7.30936C2.67109 7.22731 2.625 7.11603 2.625 7C2.625 6.88397 2.67109 6.77269 2.75314 6.69064C2.83519 6.60859 2.94647 6.5625 3.0625 6.5625Z" fill="#475569"/>
<path d="M3.24343 7.00006L6.87206 10.6278C6.95421 10.71 7.00036 10.8214 7.00036 10.9376C7.00036 11.0537 6.95421 11.1652 6.87206 11.2473C6.7899 11.3295 6.67848 11.3756 6.56231 11.3756C6.44613 11.3756 6.33471 11.3295 6.25256 11.2473L2.31506 7.30981C2.27431 7.26917 2.24199 7.22089 2.21993 7.16774C2.19788 7.11459 2.18652 7.05761 2.18652 7.00006C2.18652 6.94252 2.19788 6.88554 2.21993 6.83238C2.24199 6.77923 2.27431 6.73095 2.31506 6.69031L6.25256 2.75281C6.33471 2.67066 6.44613 2.62451 6.56231 2.62451C6.67848 2.62451 6.7899 2.67066 6.87206 2.75281C6.95421 2.83497 7.00036 2.94639 7.00036 3.06256C7.00036 3.17874 6.95421 3.29016 6.87206 3.37231L3.24343 7.00006Z" fill="#475569"/>
</svg>
