<svg width="21" height="20" viewBox="0 0 21 20" fill="none" xmlns="http://www.w3.org/2000/svg">
<g clip-path="url(#clip0_1_8294)">
<path d="M20.2874 10.2249C20.2874 9.56659 20.2291 8.94159 20.1291 8.33325H10.7124V12.0916H16.1041C15.8624 13.3249 15.1541 14.3666 14.1041 15.0749V17.5749H17.3207C19.2041 15.8333 20.2874 13.2666 20.2874 10.2249Z" fill="#4285F4"/>
<path d="M10.7124 20.0001C13.4124 20.0001 15.6707 19.1001 17.3207 17.5751L14.104 15.0751C13.204 15.6751 12.0624 16.0418 10.7124 16.0418C8.10402 16.0418 5.89569 14.2834 5.10402 11.9084H1.78735V14.4834C3.42902 17.7501 6.80402 20.0001 10.7124 20.0001Z" fill="#34A853"/>
<path d="M5.10407 11.9083C4.89574 11.3083 4.7874 10.6666 4.7874 9.99993C4.7874 9.33327 4.90407 8.6916 5.10407 8.0916V5.5166H1.7874C1.10407 6.8666 0.712402 8.38327 0.712402 9.99993C0.712402 11.6166 1.10407 13.1333 1.7874 14.4833L5.10407 11.9083Z" fill="#FBBC05"/>
<path d="M10.7124 3.95833C12.1874 3.95833 13.504 4.46667 14.5457 5.45834L17.3957 2.60833C15.6707 0.991667 13.4124 0 10.7124 0C6.80402 0 3.42902 2.25 1.78735 5.51667L5.10402 8.09167C5.89569 5.71667 8.10402 3.95833 10.7124 3.95833Z" fill="#EA4335"/>
</g>
<defs>
<clipPath id="clip0_1_8294">
<rect width="20" height="20" fill="white" transform="translate(0.5)"/>
</clipPath>
</defs>
</svg>
