<svg width="18" height="18" viewBox="0 0 18 18" fill="none" xmlns="http://www.w3.org/2000/svg">
<path d="M8.17471 13.3997H9.82471V7.89971H8.17471V13.3997ZM8.99489 6.24971C9.22727 6.24971 9.42367 6.1711 9.58408 6.0139C9.7445 5.85669 9.82471 5.6619 9.82471 5.42952C9.82471 5.19714 9.7461 5.00075 9.58889 4.84033C9.43169 4.67992 9.23689 4.59971 9.00452 4.59971C8.77214 4.59971 8.57575 4.67831 8.41533 4.83552C8.25492 4.99273 8.17471 5.18752 8.17471 5.41989C8.17471 5.65227 8.25331 5.84867 8.41052 6.00908C8.56773 6.1695 8.76252 6.24971 8.99489 6.24971ZM9.00612 17.7997C7.7949 17.7997 6.65457 17.5705 5.58512 17.1122C4.51568 16.6539 3.57992 16.0237 2.77783 15.2216C1.97575 14.4195 1.34554 13.484 0.887207 12.4152C0.428874 11.3464 0.199707 10.2044 0.199707 8.98917C0.199707 7.77397 0.428874 6.63547 0.887207 5.57367C1.34554 4.51186 1.97575 3.57992 2.77783 2.77783C3.57992 1.97575 4.51537 1.34554 5.58421 0.887207C6.65304 0.428874 7.79505 0.199707 9.01025 0.199707C10.2254 0.199707 11.3639 0.428874 12.4257 0.887207C13.4876 1.34554 14.4195 1.97575 15.2216 2.77783C16.0237 3.57992 16.6539 4.51354 17.1122 5.57871C17.5705 6.64403 17.7997 7.78222 17.7997 8.99329C17.7997 10.2045 17.5705 11.3448 17.1122 12.4143C16.6539 13.4837 16.0237 14.4195 15.2216 15.2216C14.4195 16.0237 13.4859 16.6539 12.4207 17.1122C11.3554 17.5705 10.2172 17.7997 9.00612 17.7997ZM8.99971 16.1497C10.9858 16.1497 12.674 15.4546 14.0643 14.0643C15.4546 12.674 16.1497 10.9858 16.1497 8.99971C16.1497 7.0136 15.4546 5.3254 14.0643 3.93512C12.674 2.54485 10.9858 1.84971 8.99971 1.84971C7.0136 1.84971 5.3254 2.54485 3.93512 3.93512C2.54485 5.3254 1.84971 7.0136 1.84971 8.99971C1.84971 10.9858 2.54485 12.674 3.93512 14.0643C5.3254 15.4546 7.0136 16.1497 8.99971 16.1497Z" fill="#5222FF"/>
</svg>
