<svg width="33" height="32" viewBox="0 0 33 32" fill="none" xmlns="http://www.w3.org/2000/svg">
<path d="M22.1042 10.4376L25.4583 13.7917C25.7309 14.059 26.0974 14.2086 26.4792 14.2086C26.8609 14.2086 27.2274 14.059 27.5 13.7917L30.5625 10.7292C30.8297 10.4566 30.9794 10.0901 30.9794 9.70841C30.9794 9.32669 30.8297 8.96019 30.5625 8.68758L27.2083 5.33341M30.125 2.41675L16.125 16.4167" stroke="#5222FF" stroke-width="2.91667" stroke-linecap="round" stroke-linejoin="round"/>
<path d="M10.4373 30.1252C14.8671 30.1252 18.4582 26.5341 18.4582 22.1043C18.4582 17.6745 14.8671 14.0835 10.4373 14.0835C6.00755 14.0835 2.4165 17.6745 2.4165 22.1043C2.4165 26.5341 6.00755 30.1252 10.4373 30.1252Z" stroke="#5222FF" stroke-width="2.91667" stroke-linecap="round" stroke-linejoin="round"/>
</svg>
