<svg width="36" height="36" viewBox="0 0 36 36" fill="none" xmlns="http://www.w3.org/2000/svg">
<path d="M6.33317 29.6666C5.53109 29.6666 4.8447 29.3812 4.274 28.8105C3.70331 28.2398 3.41748 27.553 3.4165 26.7499V9.24992C3.4165 8.44784 3.70234 7.76145 4.274 7.19075C4.84567 6.62006 5.53206 6.33422 6.33317 6.33325H29.6665C30.4686 6.33325 31.1555 6.61909 31.7271 7.19075C32.2988 7.76242 32.5841 8.44881 32.5832 9.24992V26.7499C32.5832 27.552 32.2978 28.2389 31.7271 28.8105C31.1564 29.3822 30.4696 29.6676 29.6665 29.6666H6.33317ZM17.9998 19.4583L6.33317 12.1666V26.7499H29.6665V12.1666L17.9998 19.4583ZM17.9998 16.5416L29.6665 9.24992H6.33317L17.9998 16.5416ZM6.33317 12.1666V9.24992V26.7499V12.1666Z" fill="#5222FF"/>
</svg>
